<svg xmlns="http://www.w3.org/2000/svg" viewBox="0 0 1200 800" preserveAspectRatio="xMidYMid slice">
  <!-- Textura 5: Gradiente Granulométrico (Areia → Argila → Rocha)
       Inspiração: Curva granulométrica + transição de partículas por tamanho
       Uso: Background geral, seções de contato, CTA
       Palette: marrom/ocre sutil + elementos técnicos azuis -->
  <defs>
    <linearGradient id="gg5-bg" x1="0" y1="0" x2="1" y2="0">
      <stop offset="0%" stop-color="#0F172A"/>
      <stop offset="50%" stop-color="#111D35"/>
      <stop offset="100%" stop-color="#0F172A"/>
    </linearGradient>
    
    <!-- Filtro noise sutil -->
    <filter id="grain-noise" x="0" y="0" width="100%" height="100%">
      <feTurbulence type="fractalNoise" baseFrequency="0.9" numOctaves="4" stitchTiles="stitch" result="noise"/>
      <feColorMatrix type="saturate" values="0" in="noise" result="mono"/>
      <feBlend in="SourceGraphic" in2="mono" mode="overlay"/>
    </filter>
  </defs>
  
  <!-- Background base -->
  <rect width="1200" height="800" fill="url(#gg5-bg)"/>
  
  <!-- ZONA 1: PEDREGULHO/CASCALHO (esquerda) — partículas grandes, espaçadas -->
  <g opacity="0.06">
    <!-- Pedregulhos angulares -->
    <polygon points="60,200 80,185 95,195 90,215 70,218" fill="none" stroke="rgba(209,213,218,0.4)" stroke-width="0.6"/>
    <polygon points="40,350 55,330 75,340 70,365 48,362" fill="none" stroke="rgba(209,213,218,0.35)" stroke-width="0.5"/>
    <polygon points="80,500 100,488 115,500 108,520 85,518" fill="none" stroke="rgba(209,213,218,0.3)" stroke-width="0.5"/>
    <polygon points="50,650 65,635 82,645 78,665 55,662" fill="none" stroke="rgba(209,213,218,0.35)" stroke-width="0.5"/>
    <polygon points="100,100 118,88 130,100 125,118 105,115" fill="none" stroke="rgba(209,213,218,0.3)" stroke-width="0.5"/>
    
    <polygon points="160,280 175,265 190,275 185,295 165,292" fill="none" stroke="rgba(209,213,218,0.25)" stroke-width="0.5"/>
    <polygon points="130,450 148,438 160,450 155,468 135,465" fill="none" stroke="rgba(209,213,218,0.3)" stroke-width="0.5"/>
    <polygon points="170,600 185,585 200,595 195,615 175,612" fill="none" stroke="rgba(209,213,218,0.25)" stroke-width="0.5"/>
  </g>
  
  <!-- ZONA 2: AREIA GROSSA (centro-esquerda) — partículas médias -->
  <g opacity="0.05">
    <g fill="rgba(245,138,52,0.25)">
      <circle cx="280" cy="100" r="2.5"/><circle cx="310" cy="130" r="2"/><circle cx="260" cy="160" r="2.2"/>
      <circle cx="340" cy="180" r="1.8"/><circle cx="290" cy="220" r="2.3"/><circle cx="320" cy="260" r="2"/>
      <circle cx="270" cy="300" r="2.5"/><circle cx="350" cy="330" r="1.8"/><circle cx="300" cy="370" r="2.2"/>
      <circle cx="260" cy="410" r="2"/><circle cx="330" cy="440" r="2.3"/><circle cx="280" cy="480" r="1.8"/>
      <circle cx="350" cy="520" r="2.5"/><circle cx="290" cy="560" r="2"/><circle cx="320" cy="600" r="2.2"/>
      <circle cx="270" cy="640" r="2.3"/><circle cx="340" cy="680" r="1.8"/><circle cx="300" cy="720" r="2"/>
    </g>
  </g>
  
  <!-- ZONA 3: AREIA FINA (centro) — partículas pequenas, densas -->
  <g opacity="0.04">
    <g fill="rgba(245,138,52,0.20)">
      <circle cx="480" cy="60" r="1"/><circle cx="500" cy="80" r="0.8"/><circle cx="520" cy="65" r="1.1"/>
      <circle cx="540" cy="90" r="0.9"/><circle cx="490" cy="110" r="1"/><circle cx="530" cy="105" r="0.8"/>
      <circle cx="510" cy="130" r="1.1"/><circle cx="470" cy="145" r="0.9"/><circle cx="550" cy="140" r="1"/>
      <circle cx="500" cy="165" r="0.8"/><circle cx="480" cy="190" r="1.1"/><circle cx="540" cy="180" r="0.9"/>
      <circle cx="520" cy="210" r="1"/><circle cx="490" cy="240" r="0.8"/><circle cx="550" cy="230" r="1.1"/>
      <circle cx="470" cy="260" r="0.9"/><circle cx="530" cy="250" r="1"/><circle cx="510" cy="280" r="0.8"/>
      <circle cx="480" cy="310" r="1.1"/><circle cx="540" cy="300" r="0.9"/><circle cx="500" cy="330" r="1"/>
      <circle cx="520" cy="350" r="0.8"/><circle cx="490" cy="380" r="1.1"/><circle cx="550" cy="370" r="0.9"/>
      <circle cx="470" cy="400" r="1"/><circle cx="530" cy="390" r="0.8"/><circle cx="510" cy="420" r="1.1"/>
      <circle cx="480" cy="450" r="0.9"/><circle cx="540" cy="440" r="1"/><circle cx="500" cy="470" r="0.8"/>
      <circle cx="520" cy="490" r="1.1"/><circle cx="490" cy="520" r="0.9"/><circle cx="550" cy="510" r="1"/>
      <circle cx="470" cy="540" r="0.8"/><circle cx="530" cy="530" r="1.1"/><circle cx="510" cy="560" r="0.9"/>
      <circle cx="480" cy="590" r="1"/><circle cx="540" cy="580" r="0.8"/><circle cx="500" cy="610" r="1.1"/>
      <circle cx="520" cy="630" r="0.9"/><circle cx="490" cy="660" r="1"/><circle cx="550" cy="650" r="0.8"/>
      <circle cx="470" cy="680" r="1.1"/><circle cx="530" cy="670" r="0.9"/><circle cx="510" cy="700" r="1"/>
      <circle cx="480" cy="730" r="0.8"/><circle cx="540" cy="720" r="1.1"/><circle cx="500" cy="750" r="0.9"/>
    </g>
  </g>
  
  <!-- ZONA 4: SILTE (centro-direita) — linhas finas horizontais -->
  <g opacity="0.04" stroke="rgba(74,125,188,0.20)" stroke-width="0.3">
    <line x1="680" y1="50" x2="780" y2="50"/><line x1="690" y1="60" x2="770" y2="60"/>
    <line x1="685" y1="70" x2="775" y2="70"/><line x1="680" y1="80" x2="780" y2="80"/>
    <line x1="695" y1="100" x2="765" y2="100"/><line x1="680" y1="110" x2="780" y2="110"/>
    <line x1="690" y1="130" x2="770" y2="130"/><line x1="685" y1="150" x2="775" y2="150"/>
    <line x1="680" y1="170" x2="780" y2="170"/><line x1="695" y1="190" x2="765" y2="190"/>
    <line x1="680" y1="210" x2="780" y2="210"/><line x1="690" y1="230" x2="770" y2="230"/>
    <line x1="685" y1="250" x2="775" y2="250"/><line x1="680" y1="270" x2="780" y2="270"/>
    <line x1="695" y1="290" x2="765" y2="290"/><line x1="680" y1="310" x2="780" y2="310"/>
    <line x1="690" y1="330" x2="770" y2="330"/><line x1="685" y1="350" x2="775" y2="350"/>
    <line x1="680" y1="370" x2="780" y2="370"/><line x1="695" y1="390" x2="765" y2="390"/>
    <line x1="680" y1="410" x2="780" y2="410"/><line x1="690" y1="430" x2="770" y2="430"/>
    <line x1="685" y1="450" x2="775" y2="450"/><line x1="680" y1="470" x2="780" y2="470"/>
    <line x1="695" y1="490" x2="765" y2="490"/><line x1="680" y1="510" x2="780" y2="510"/>
    <line x1="690" y1="530" x2="770" y2="530"/><line x1="685" y1="550" x2="775" y2="550"/>
    <line x1="680" y1="570" x2="780" y2="570"/><line x1="695" y1="590" x2="765" y2="590"/>
    <line x1="680" y1="610" x2="780" y2="610"/><line x1="690" y1="630" x2="770" y2="630"/>
    <line x1="685" y1="650" x2="775" y2="650"/><line x1="680" y1="670" x2="780" y2="670"/>
    <line x1="695" y1="690" x2="765" y2="690"/><line x1="680" y1="710" x2="780" y2="710"/>
    <line x1="690" y1="730" x2="770" y2="730"/><line x1="685" y1="750" x2="775" y2="750"/>
  </g>
  
  <!-- ZONA 5: ARGILA (direita) — hachuras horizontais densas -->
  <g opacity="0.04" stroke="rgba(54,137,103,0.20)" stroke-width="0.4">
    <line x1="900" y1="40" x2="1100" y2="40"/><line x1="900" y1="50" x2="1100" y2="50"/>
    <line x1="900" y1="60" x2="1100" y2="60"/><line x1="900" y1="80" x2="1100" y2="80"/>
    <line x1="900" y1="90" x2="1100" y2="90"/><line x1="900" y1="100" x2="1100" y2="100"/>
    <line x1="900" y1="120" x2="1100" y2="120"/><line x1="900" y1="130" x2="1100" y2="130"/>
    <line x1="900" y1="140" x2="1100" y2="140"/><line x1="900" y1="160" x2="1100" y2="160"/>
    <line x1="900" y1="170" x2="1100" y2="170"/><line x1="900" y1="180" x2="1100" y2="180"/>
    <line x1="900" y1="200" x2="1100" y2="200"/><line x1="900" y1="210" x2="1100" y2="210"/>
    <line x1="900" y1="220" x2="1100" y2="220"/><line x1="900" y1="240" x2="1100" y2="240"/>
    <line x1="900" y1="250" x2="1100" y2="250"/><line x1="900" y1="260" x2="1100" y2="260"/>
    <line x1="900" y1="280" x2="1100" y2="280"/><line x1="900" y1="290" x2="1100" y2="290"/>
    <line x1="900" y1="300" x2="1100" y2="300"/><line x1="900" y1="320" x2="1100" y2="320"/>
    <line x1="900" y1="330" x2="1100" y2="330"/><line x1="900" y1="340" x2="1100" y2="340"/>
    <line x1="900" y1="360" x2="1100" y2="360"/><line x1="900" y1="370" x2="1100" y2="370"/>
    <line x1="900" y1="380" x2="1100" y2="380"/><line x1="900" y1="400" x2="1100" y2="400"/>
    <line x1="900" y1="410" x2="1100" y2="410"/><line x1="900" y1="420" x2="1100" y2="420"/>
    <line x1="900" y1="440" x2="1100" y2="440"/><line x1="900" y1="450" x2="1100" y2="450"/>
    <line x1="900" y1="460" x2="1100" y2="460"/><line x1="900" y1="480" x2="1100" y2="480"/>
    <line x1="900" y1="490" x2="1100" y2="490"/><line x1="900" y1="500" x2="1100" y2="500"/>
    <line x1="900" y1="520" x2="1100" y2="520"/><line x1="900" y1="530" x2="1100" y2="530"/>
    <line x1="900" y1="540" x2="1100" y2="540"/><line x1="900" y1="560" x2="1100" y2="560"/>
    <line x1="900" y1="570" x2="1100" y2="570"/><line x1="900" y1="580" x2="1100" y2="580"/>
    <line x1="900" y1="600" x2="1100" y2="600"/><line x1="900" y1="610" x2="1100" y2="610"/>
    <line x1="900" y1="620" x2="1100" y2="620"/><line x1="900" y1="640" x2="1100" y2="640"/>
    <line x1="900" y1="650" x2="1100" y2="650"/><line x1="900" y1="660" x2="1100" y2="660"/>
    <line x1="900" y1="680" x2="1100" y2="680"/><line x1="900" y1="690" x2="1100" y2="690"/>
    <line x1="900" y1="700" x2="1100" y2="700"/><line x1="900" y1="720" x2="1100" y2="720"/>
    <line x1="900" y1="730" x2="1100" y2="730"/><line x1="900" y1="740" x2="1100" y2="740"/>
    <line x1="900" y1="760" x2="1100" y2="760"/>
  </g>
  
  <!-- LEGENDA DE CLASSIFICAÇÃO GRANULOMÉTRICA — discreto no topo -->
  <g font-family="monospace" font-size="5.5" fill="rgba(74,125,188,0.07)" opacity="0.8">
    <text x="80" y="30">PEDREGULHO</text>
    <text x="290" y="30">AREIA GROSSA</text>
    <text x="490" y="30">AREIA FINA</text>
    <text x="710" y="30">SILTE</text>
    <text x="970" y="30">ARGILA</text>
  </g>
  
  <!-- Linhas divisórias entre zonas granulométricas -->
  <g stroke="rgba(74,125,188,0.04)" stroke-width="0.5" stroke-dasharray="4,8">
    <line x1="220" y1="0" x2="220" y2="800"/>
    <line x1="430" y1="0" x2="430" y2="800"/>
    <line x1="650" y1="0" x2="650" y2="800"/>
    <line x1="860" y1="0" x2="860" y2="800"/>
  </g>
  
  <!-- EIXO DE ESCALA GRANULOMÉTRICA (sutil no fundo) -->
  <g transform="translate(50,780)" opacity="0.06">
    <line x1="0" y1="0" x2="1100" y2="0" stroke="rgba(74,125,188,0.8)" stroke-width="0.8"/>
    <g font-family="monospace" font-size="5" fill="rgba(74,125,188,0.6)">
      <text x="0" y="10">76mm</text>
      <text x="170" y="10">4.75mm</text>
      <text x="380" y="10">0.42mm</text>
      <text x="600" y="10">0.075mm</text>
      <text x="810" y="10">0.005mm</text>
      <text x="1050" y="10">&lt;0.002mm</text>
    </g>
  </g>
</svg>
