<?xml version="1.0" encoding="utf-8" ?><svg xmlns="http://www.w3.org/2000/svg" xmlns:xlink="http://www.w3.org/1999/xlink" width="1024" height="1024" viewBox="400 240 450 250"><defs><linearGradient id="gradient_0" gradientUnits="userSpaceOnUse" x1="602.79034" y1="318.12445" x2="642.20404" y2="216.58022"><stop offset="0" stop-color="#13304A"/><stop offset="1" stop-color="#385870"/></linearGradient></defs><path fill="url(#gradient_0)" transform="scale(1.23077 1.23077)" d="M646.542 269.811C648.617 268.219 728.444 252.109 735.6 250.636C735.707 261.797 735.727 272.958 735.658 284.119C726.774 285.287 715.726 287.855 706.808 289.68L660.077 299.14C652.466 300.666 638.244 303.982 631.206 304.114C624.168 304.247 609.556 300.854 601.951 299.565C583.652 296.594 565.387 293.415 547.161 290.027C535.502 287.926 520.927 284.926 509.347 283.769C509.185 273.318 509.536 262.889 509.037 252.43C515.561 250.098 614.211 272.05 629.843 272.697C635.417 272.927 641.084 270.771 646.542 269.811Z"/><path fill="#304E68" transform="scale(1.23077 1.23077)" d="M509.037 252.43C515.561 250.098 614.211 272.05 629.843 272.697C635.417 272.927 641.084 270.771 646.542 269.811L645.089 271.264C641.283 272.256 631.875 274.62 628.771 274.091C617.776 272.217 512.313 254.265 509.037 252.43Z"/><path fill="#102741" transform="scale(1.23077 1.23077)" d="M734.426 368.66L735.355 368.051C737.216 370.163 736.502 393.5 736.284 397.649C708.092 396.26 671.924 397.393 643.211 397.397L525.437 396.446C519.667 397.206 514.541 397.828 508.866 399.126C509.487 389.79 509.25 378.615 508.896 369.221C512.767 368.674 515.667 368.789 519.54 368.843C552.622 367.314 587.329 369.812 620.558 368.703C625.583 368.535 632.081 368.572 637.129 368.837C659.248 368.683 681.368 368.655 703.488 368.753C713.2 368.76 724.871 369.055 734.426 368.66Z"/><defs><linearGradient id="gradient_1" gradientUnits="userSpaceOnUse" x1="553.7027" y1="411.7897" x2="573.70337" y2="353.5116"><stop offset="0" stop-color="#071F38"/><stop offset="1" stop-color="#203E58"/></linearGradient></defs><path fill="url(#gradient_1)" transform="scale(1.23077 1.23077)" d="M519.54 368.843C552.622 367.314 587.329 369.812 620.558 368.703C625.583 368.535 632.081 368.572 637.129 368.837L636.585 368.944C630.387 370.109 616.044 368.565 612.563 369.516C615.383 370.686 625.181 370.193 629.501 370.682C625.847 372.939 605.067 376.611 599.52 378.023C581.108 382.714 562.216 386.339 543.978 391.755C537.932 393.551 531.747 394.386 525.437 396.446C519.667 397.206 514.541 397.828 508.866 399.126C509.487 389.79 509.25 378.615 508.896 369.221C512.767 368.674 515.667 368.789 519.54 368.843Z"/><path fill="#304E68" transform="scale(1.23077 1.23077)" d="M508.896 369.221C512.767 368.674 515.667 368.789 519.54 368.843C521.517 369.017 523.279 369.174 525.253 369.477L525.539 369.907C522.458 370.322 511.336 370.556 508.896 369.221Z"/><path fill="#304E68" transform="scale(1.23077 1.23077)" d="M637.129 368.837C659.248 368.683 681.368 368.655 703.488 368.753C713.2 368.76 724.871 369.055 734.426 368.66L734.677 369.691C732.339 370.403 717.363 370.055 714.005 370.052L661.407 370.004C652.594 369.989 637.742 369.528 629.501 370.682C625.181 370.193 615.383 370.686 612.563 369.516C616.044 368.565 630.387 370.109 636.585 368.944L637.129 368.837Z"/><defs><linearGradient id="gradient_2" gradientUnits="userSpaceOnUse" x1="574.60443" y1="357.00421" x2="614.60083" y2="283.56339"><stop offset="0" stop-color="#0D233E"/><stop offset="1" stop-color="#203F59"/></linearGradient></defs><path fill="url(#gradient_2)" transform="scale(1.23077 1.23077)" d="M509.104 293.321C511.95 292.285 536.666 297.347 541.932 298.306L645.8 317.16C657.777 317.874 679.002 323.832 693.242 325.296C682.615 328.03 667.719 330.328 656.512 332.58C642.702 335.355 623.09 339.294 609.193 340.043C604.927 340.272 585.693 336.034 580.007 335.059C556.397 331.151 532.808 327.115 509.242 322.952C509.377 313.075 509.331 303.197 509.104 293.321Z"/><path fill="#304E68" transform="scale(1.23077 1.23077)" d="M509.104 293.321C511.95 292.285 536.666 297.347 541.932 298.306L645.8 317.16C645.604 317.263 645.417 317.389 645.211 317.47C642.848 318.399 514.836 295.964 509.104 293.321Z"/><path fill="#E08325" transform="scale(1.23077 1.23077)" d="M733.341 326.892L734.781 326.838C736.293 329.19 735.547 357.034 735.509 361.997C715.828 361.594 695.368 361.977 675.64 361.996L562.302 361.831C561.927 361.86 560.704 361.727 560.256 361.69C562.758 359.729 715.426 330.252 733.341 326.892Z"/><path fill="#304E68" transform="scale(1.23077 1.23077)" d="M734.086 291.352L734.906 291.478C736.358 293.353 735.708 317.251 735.688 321.176C718.662 324.132 705.383 320.356 688.772 317.341L660.415 312.471C654.974 311.56 649.523 310.712 644.063 309.925C673.737 303.766 704.629 297.972 734.086 291.352Z"/><path fill="#102741" transform="scale(1.23077 1.23077)" d="M509.376 361.362C509.427 352.846 509.869 338.393 508.546 330.462C511.188 330.531 522.936 332.365 524.983 332.936C532.125 334.926 590.086 343.632 592.104 345.723L589.916 346.597C567.746 351.871 531.76 358.327 509.376 361.362Z"/><path fill="#304E68" transform="scale(1.23077 1.23077)" d="M508.546 330.462C511.188 330.531 522.936 332.365 524.983 332.936C532.125 334.926 590.086 343.632 592.104 345.723L589.916 346.597C587.153 346.196 578.352 344.463 575.909 343.791C567.383 341.446 511.176 333.596 508.546 330.462Z"/><path fill="#1B2B48" transform="scale(1.23077 1.23077)" d="M664.854 447.47C670.997 445.691 677.622 447.353 682.199 451.82C686.776 456.288 688.599 462.872 686.97 469.059C685.342 475.245 680.514 480.078 674.331 481.712C664.926 484.198 655.271 478.653 652.676 469.275C650.08 459.898 655.51 450.176 664.854 447.47Z"/><path fill="#070D24" transform="scale(1.23077 1.23077)" d="M667.345 453.837C673.228 452.504 679.078 456.19 680.417 462.072C681.756 467.954 678.078 473.81 672.199 475.156C666.31 476.504 660.445 472.818 659.103 466.927C657.762 461.035 661.453 455.172 667.345 453.837Z"/><path fill="#1B2B48" transform="scale(1.23077 1.23077)" d="M524.738 443.913C535.947 443.699 557.347 440.627 556.207 458.253C555.912 462.814 552.085 465.99 548.557 468.317C551.022 471.792 556.822 477.491 556.923 480.719C555.419 481.939 554.512 481.527 552.197 481.572C547.078 481.569 543.201 473.517 540.39 469.364L532.603 469.253L532.557 481.467L524.731 481.491C524.633 468.965 524.635 456.439 524.738 443.913Z"/><path fill="#070D24" transform="scale(1.23077 1.23077)" d="M532.602 450.58C540.141 450.482 552.918 449.582 546.585 461.293C542.769 462.97 536.842 462.545 532.564 462.511L532.602 450.58Z"/><path fill="#1B2B48" transform="scale(1.23077 1.23077)" d="M799.601 443.737C807.026 443.604 824.71 441.813 829.196 449.089C834.026 456.922 830.841 463.425 823.668 468.329C826.354 471.976 831.404 476.694 831.637 480.282C829.764 481.586 828.827 481.126 826.162 481.171C822.602 480.963 817.069 471.762 814.931 468.793L807.772 468.757L807.641 480.864L799.606 480.871C799.926 468.86 799.642 455.819 799.601 443.737Z"/><path fill="#070D24" transform="scale(1.23077 1.23077)" d="M807.783 450.487C815.262 450.32 827.325 448.845 822.23 460.512C817.693 463 813.007 462.291 807.788 462.172L807.783 450.487Z"/><path fill="#1B2B48" transform="scale(1.23077 1.23077)" d="M485.181 443.838C493.701 443.731 510.257 441.897 514.858 450.013C519.295 457.839 515.387 464.123 508.689 468.223C510.895 471.131 516.409 478.096 517.929 480.901C517.061 481.724 514.359 481.523 512.814 481.597C507.546 481.595 503.273 473.531 500.157 469.318L492.906 469.281L492.848 481.498L485.188 481.469L485.181 443.838Z"/><path fill="#070D24" transform="scale(1.23077 1.23077)" d="M492.837 450.494C499.643 450.375 513.206 449.595 506.92 460.852C502.744 463.134 497.714 462.563 492.899 462.537L492.837 450.494Z"/><path fill="#1B2B48" transform="scale(1.23077 1.23077)" d="M617.831 447.931C632.815 447.692 650.979 446.149 648.292 468.11C647.857 471.667 646.069 474.141 643.939 476.904C636.818 482.8 626.905 481.573 617.944 481.463L617.831 447.931Z"/><path fill="#070D24" transform="scale(1.23077 1.23077)" d="M625.263 454.319C628.592 454.255 632.096 454.53 635.434 454.726C642.336 460.101 643.481 464.638 638.831 472.304C634.615 475.42 630.291 474.849 625.252 474.793L625.263 454.319Z"/><path fill="#1B2B48" transform="scale(1.23077 1.23077)" d="M740.762 443.841L748.074 443.916L748.238 481.239L740.584 481.27L740.383 457.22C736.421 461.97 731.708 468.745 727.81 473.87C724.367 470.058 719.262 463.061 715.844 458.774L714.912 458.704L714.813 481.355L707.361 481.366C707.368 468.98 707.312 456.593 707.191 444.207L714.753 444.131C718.962 449.157 723.796 456.595 727.61 462.132C731.7 456.18 736.183 449.321 740.762 443.841Z"/><path fill="#1B2B48" transform="scale(1.23077 1.23077)" d="M576.273 443.85L585.128 443.976C590.689 454.967 596.626 469.807 601.58 481.359L593.282 481.483C591.441 477.576 591.436 474.448 586.98 474.179L571.619 474.228L568.388 481.429L560.128 481.46L576.273 443.85Z"/><path fill="#070D24" transform="scale(1.23077 1.23077)" d="M580.539 452.772C582.103 454.498 585.936 464.208 586.711 466.878C585.481 467.699 584.316 467.445 582.624 467.5L574.389 467.433L580.539 452.772Z"/><path fill="#1B2B48" transform="scale(1.23077 1.23077)" d="M769.152 443.744L778.251 443.79C783.84 455.332 789.464 469.055 794.662 480.931L786.283 481.035C783.975 475.233 784.675 473.914 778.324 473.936L764.588 474.01L761.33 481.253L753.149 481.053C758.16 471.016 764.366 454.747 769.152 443.744Z"/><path fill="#070D24" transform="scale(1.23077 1.23077)" d="M773.667 452.766C775.529 455.056 779.212 463.87 779.985 466.809C778.621 467.632 777.66 467.367 775.887 467.412L767.368 467.348C769.311 462.546 771.588 457.537 773.667 452.766Z"/><path fill="#1B2B48" transform="scale(1.23077 1.23077)" d="M449.79 443.869L477.625 443.985C477.701 446.414 477.697 447.381 477.402 449.86C475.262 451.248 461.011 450.678 457.47 450.645L457.508 458.976L475.843 459.075C475.945 461.274 476.298 462.841 475.212 464.667C471.802 467.047 463.702 465.751 458.419 465.772L457.964 466.146C457.194 468.159 457.484 472.39 457.517 474.756C462.946 474.906 475.408 472.837 478.273 477.357C478.19 479.826 478.632 479.779 477.362 481.091C471.783 482.149 456.283 481.549 449.787 481.469C449.705 468.936 449.706 456.402 449.79 443.869Z"/><path fill="#1B2B48" transform="scale(1.23077 1.23077)" d="M424.455 443.243C431.83 442.851 435.044 443.087 441.605 446.398L438.152 452.41C433.714 450.202 422.304 447.379 421.598 454.715C424.545 459.824 443.098 459.368 443.549 469.032C444 478.685 436.845 481.707 428.6 482.499C421.654 482.571 418.11 481.184 412.116 477.903L415.533 471.822C419.477 473.654 435.456 479.809 435.298 470.783C432.308 466.439 423.845 465.954 419.318 463.261C407.764 456.386 413.741 446.246 424.455 443.243Z"/><path fill="#1B2B48" transform="scale(1.23077 1.23077)" d="M695.772 507.711C703.442 507.587 718.951 508.628 707.487 519.694C708.888 521.748 709.633 522.89 710.795 525.122L710.117 526.228C707.59 525.288 706.191 522.955 704.369 520.749C699.97 519.148 698.843 521.881 696.831 525.318L696.145 525.266C695.786 519.414 695.809 513.574 695.772 507.711Z"/><path fill="#070D24" transform="scale(1.23077 1.23077)" d="M698.581 510.382C702.636 510.307 705.075 509.62 707.789 512.163C708.438 514.321 708.111 514.666 707.293 516.922C704.239 517.439 701.945 518.162 699.302 516.808C698.05 514.943 698.484 512.77 698.581 510.382Z"/><path fill="#1B2B48" transform="scale(1.23077 1.23077)" d="M673.044 507.521L675.138 507.81C677.36 509.674 683.32 522.222 683.602 525.392L682.873 526.111C679.499 524.523 681.065 522.482 677.777 521.71C669.944 521.461 672.274 521.965 665.521 525.091C665.472 523.446 671.923 509.973 673.044 507.521Z"/><path fill="#070D24" transform="scale(1.23077 1.23077)" d="M674.233 511.235C675.455 512.762 677.036 516.289 677.361 518.324L676.39 519.309C674.065 519.043 673.452 519.371 671.868 518.046C671.47 515.899 673.162 513.385 674.233 511.235Z"/><path fill="#1B2B48" transform="scale(1.23077 1.23077)" d="M747.861 507.297C749.236 507.527 749.285 507.625 750.474 508.254C751.978 510.478 758.251 523.25 758.34 525.418C754.414 526.754 756.201 523.055 752.694 521.717C745.907 521.485 746.576 521.611 740.706 524.801L740.17 524.561C741.94 519.486 745.51 512.343 747.861 507.297Z"/><path fill="#070D24" transform="scale(1.23077 1.23077)" d="M748.948 511.127C750.24 513.601 751.996 516.071 751.564 518.679L749.708 519.892C748.311 519.471 747.341 519.373 746.455 518.252C746.016 515.847 747.721 513.486 748.948 511.127Z"/><path fill="#1B2B48" transform="scale(1.23077 1.23077)" d="M619.092 520.554C619.043 517.306 617.973 509.384 620.485 507.697L621.592 508.083C622.685 511.58 622.199 522.253 622.135 526.339C618.127 525.655 611.848 516.863 608.618 513.123C608.502 516.356 609.16 523.656 608.025 525.71L606.758 525.944C604.728 523.556 605.631 511.375 605.715 507.411C609.466 508.459 616.002 517.039 619.092 520.554Z"/><path fill="#1B2B48" transform="scale(1.23077 1.23077)" d="M530.633 520.696C530.598 517.226 529.404 509.046 532.47 507.633L533.229 508.408C533.856 513.468 533.419 521.224 533.271 526.549C529.686 525.486 523.229 516.844 520.202 513.351C520.226 517.158 520.698 523.574 518.651 526.378L519.355 525.927L518.89 526.551L518.541 526.275C516.622 521.791 517.138 512.338 517.212 507.316C520.571 508.073 528.016 517.644 530.633 520.696Z"/><path fill="#1B2B48" transform="scale(1.23077 1.23077)" d="M577.992 507.723C580.609 507.711 591.092 507.358 592.443 508.811C589.449 510.173 584.477 510.142 580.809 512.131L580.786 514.219C582.586 516.19 586.023 514.67 589.799 516.482L589.532 517.31C587.235 518.552 584.652 518.179 581.986 518.105C580.985 518.808 580.519 519.769 580.42 520.962C582.257 524.136 588.038 522.373 592.42 524.348L592.343 525.076C590.821 526.339 580.707 525.972 578.104 525.987C578.225 520.093 578.044 513.66 577.992 507.723Z"/><path fill="#1B2B48" transform="scale(1.23077 1.23077)" d="M489.325 507.701C492.387 507.719 501.983 507.025 503.685 509.118C500.142 510.634 493.195 508.722 491.955 513.922C493.117 516.59 496.971 514.541 501.316 516.452L501.118 517.316C498.884 518.629 496.255 518.241 493.593 518.175C493.094 518.304 492.865 518.6 492.4 518.97C492.28 520.781 492.114 521.249 492.768 522.875C496.874 524.2 501.739 521.162 503.69 524.616L503.231 525.384C501.058 526.566 492.358 526.057 489.292 526.01L489.325 507.701Z"/><path fill="#1B2B48" transform="scale(1.23077 1.23077)" d="M649.597 515.536C649.543 512.881 649.263 510.523 650.138 508.058L651.341 507.769L652.331 508.448C653.08 512.664 652.59 521.45 652.46 526.111C651.344 525.993 651.247 525.885 650.199 525.443C649.061 523.336 649.493 520.613 649.582 518.08L639.195 518.182C639.142 521.353 639.343 523.383 637.823 526.206C635.671 523.894 636.048 510.587 636.071 507.235C638.103 507.759 637.435 507.32 638.885 508.748C639.403 511.029 639.174 513.142 639.053 515.466L649.597 515.536Z"/><path fill="#1B2B48" transform="scale(1.23077 1.23077)" d="M552.774 507.807C557.146 507.171 559.958 507.913 563.71 510.267L563.733 511.235C561.782 512.101 562.242 512.216 560.082 511.324C543.772 504.585 548.041 531.138 561.466 521.759C560.832 519.426 560.192 518.185 562.142 516.532L563.321 517.243C564.778 519.35 564.319 521.3 564.183 523.981C547.851 530.995 539.576 516.034 552.774 507.807Z"/><path fill="#1B2B48" transform="scale(1.23077 1.23077)" d="M724.588 507.3C725.777 507.547 725.772 507.605 726.842 508.212C727.92 511.356 727.343 521.5 727.225 525.288C726.34 525.879 726.713 525.621 725.377 525.672C723.745 523.253 724.506 510.977 724.588 507.3Z"/></svg>